HIERARCHY
ROOT mixamorig:Hips
{
	OFFSET 0.000000 95.415794 0.000000
	CHANNELS 6 Xposition Yposition Zposition Xrotation Yrotation Zrotation
	JOINT mixamorig:Spine
	{
		OFFSET 0.000000 10.058800 -0.358200
		CHANNELS 3 Xrotation Yrotation Zrotation
		JOINT mixamorig:Spine1
		{
			OFFSET 0.000000 11.735359 -0.417847
			CHANNELS 3 Xrotation Yrotation Zrotation
			JOINT mixamorig:Spine2
			{
				OFFSET 0.000000 13.411812 -0.477538
				CHANNELS 3 Xrotation Yrotation Zrotation
				JOINT mixamorig:Neck
				{
					OFFSET 0.000000 15.088242 -0.537228
					CHANNELS 3 Xrotation Yrotation Zrotation
					JOINT mixamorig:Head
					{
						OFFSET 0.000000 8.085602 2.687800
						CHANNELS 3 Xrotation Yrotation Zrotation
						JOINT mixamorig:HeadTop_End
						{
							OFFSET 0.000000 21.499207 7.146700
							CHANNELS 3 Xrotation Yrotation Zrotation
							End Site
							{
								OFFSET 0.000000 22.655930 0.000000
							}
						}
					}
				}
				JOINT mixamorig:LeftShoulder
				{
					OFFSET 5.949100 13.237015 -0.535855
					CHANNELS 3 Xrotation Yrotation Zrotation
					JOINT mixamorig:LeftArm
					{
						OFFSET 11.918104 -3.676208 0.002851
						CHANNELS 3 Xrotation Yrotation Zrotation
						JOINT mixamorig:LeftForeArm
						{
							OFFSET 23.814898 0.000000 -0.000001
							CHANNELS 3 Xrotation Yrotation Zrotation
							JOINT mixamorig:LeftHand
							{
								OFFSET 24.556309 0.000000 -0.000001
								CHANNELS 3 Xrotation Yrotation Zrotation
								JOINT mixamorig:LeftHandThumb1
								{
									OFFSET 2.802582 -1.204224 2.556223
									CHANNELS 3 Xrotation Yrotation Zrotation
									JOINT mixamorig:LeftHandThumb2
									{
										OFFSET 2.466209 -1.423859 1.423865
										CHANNELS 3 Xrotation Yrotation Zrotation
										JOINT mixamorig:LeftHandThumb3
										{
											OFFSET 2.369835 -1.368225 1.368225
											CHANNELS 3 Xrotation Yrotation Zrotation
											JOINT mixamorig:LeftHandThumb4
											{
												OFFSET 1.846512 -1.066086 1.066086
												CHANNELS 3 Xrotation Yrotation Zrotation
												End Site
												{
													OFFSET 1.556206 -1.025696 1.486212
												}
											}
										}
									}
								}
								JOINT mixamorig:LeftHandIndex1
								{
									OFFSET 8.620476 -0.225967 2.435161
									CHANNELS 3 Xrotation Yrotation Zrotation
									JOINT mixamorig:LeftHandIndex2
									{
										OFFSET 3.045731 0.000000 -0.000000
										CHANNELS 3 Xrotation Yrotation Zrotation
										JOINT mixamorig:LeftHandIndex3
										{
											OFFSET 2.806702 0.000000 -0.000000
											CHANNELS 3 Xrotation Yrotation Zrotation
											JOINT mixamorig:LeftHandIndex4
											{
												OFFSET 2.440117 0.000000 -0.000000
												CHANNELS 3 Xrotation Yrotation Zrotation
												End Site
												{
													OFFSET 2.440094 -0.000061 -0.008200
												}
											}
										}
									}
								}
								JOINT mixamorig:LeftHandMiddle1
								{
									OFFSET 8.484863 0.000000 -0.000000
									CHANNELS 3 Xrotation Yrotation Zrotation
									JOINT mixamorig:LeftHandMiddle2
									{
										OFFSET 3.193611 0.000000 -0.000000
										CHANNELS 3 Xrotation Yrotation Zrotation
										JOINT mixamorig:LeftHandMiddle3
										{
											OFFSET 3.085205 0.000000 -0.000000
											CHANNELS 3 Xrotation Yrotation Zrotation
											JOINT mixamorig:LeftHandMiddle4
											{
												OFFSET 2.692902 0.000000 -0.000000
												CHANNELS 3 Xrotation Yrotation Zrotation
												End Site
												{
													OFFSET 2.692902 -0.000031 -0.003300
												}
											}
										}
									}
								}
								JOINT mixamorig:LeftHandRing1
								{
									OFFSET 8.270775 0.052689 -2.023483
									CHANNELS 3 Xrotation Yrotation Zrotation
									JOINT mixamorig:LeftHandRing2
									{
										OFFSET 2.740799 0.000000 -0.000000
										CHANNELS 3 Xrotation Yrotation Zrotation
										JOINT mixamorig:LeftHandRing3
										{
											OFFSET 2.757607 0.000000 -0.000000
											CHANNELS 3 Xrotation Yrotation Zrotation
											JOINT mixamorig:LeftHandRing4
											{
												OFFSET 2.285004 0.000000 -0.000000
												CHANNELS 3 Xrotation Yrotation Zrotation
												End Site
												{
													OFFSET 2.285004 0.000031 0.003000
												}
											}
										}
									}
								}
								JOINT mixamorig:LeftHandPinky1
								{
									OFFSET 7.700752 -0.253616 -3.945376
									CHANNELS 3 Xrotation Yrotation Zrotation
									JOINT mixamorig:LeftHandPinky2
									{
										OFFSET 2.527405 0.000000 0.000000
										CHANNELS 3 Xrotation Yrotation Zrotation
										JOINT mixamorig:LeftHandPinky3
										{
											OFFSET 2.003403 0.000000 0.000000
											CHANNELS 3 Xrotation Yrotation Zrotation
											JOINT mixamorig:LeftHandPinky4
											{
												OFFSET 1.854500 0.000000 0.000000
												CHANNELS 3 Xrotation Yrotation Zrotation
												End Site
												{
													OFFSET 1.854507 -0.000015 -0.001300
												}
											}
										}
									}
								}
							}
						}
					}
				}
				JOINT mixamorig:RightShoulder
				{
					OFFSET -5.949100 13.237015 -0.538657
					CHANNELS 3 Xrotation Yrotation Zrotation
					JOINT mixamorig:RightArm
					{
						OFFSET -11.918104 -3.676208 -0.002847
						CHANNELS 3 Xrotation Yrotation Zrotation
						JOINT mixamorig:RightForeArm
						{
							OFFSET -23.819902 0.000000 0.000001
							CHANNELS 3 Xrotation Yrotation Zrotation
							JOINT mixamorig:RightHand
							{
								OFFSET -24.559902 0.000000 0.000001
								CHANNELS 3 Xrotation Yrotation Zrotation
								JOINT mixamorig:RightHandThumb1
								{
									OFFSET -2.702209 -1.308395 2.527615
									CHANNELS 3 Xrotation Yrotation Zrotation
									JOINT mixamorig:RightHandThumb2
									{
										OFFSET -2.432022 -1.404129 1.404127
										CHANNELS 3 Xrotation Yrotation Zrotation
										JOINT mixamorig:RightHandThumb3
										{
											OFFSET -2.375206 -1.371323 1.371325
											CHANNELS 3 Xrotation Yrotation Zrotation
											JOINT mixamorig:RightHandThumb4
											{
												OFFSET -1.987808 -1.147659 1.147661
												CHANNELS 3 Xrotation Yrotation Zrotation
												End Site
												{
													OFFSET -1.835846 -1.144562 1.380323
												}
											}
										}
									}
								}
								JOINT mixamorig:RightHandIndex1
								{
									OFFSET -8.671478 -0.301926 2.442636
									CHANNELS 3 Xrotation Yrotation Zrotation
									JOINT mixamorig:RightHandIndex2
									{
										OFFSET -3.068298 0.000000 0.000000
										CHANNELS 3 Xrotation Yrotation Zrotation
										JOINT mixamorig:RightHandIndex3
										{
											OFFSET -2.779701 0.000000 0.000000
											CHANNELS 3 Xrotation Yrotation Zrotation
											JOINT mixamorig:RightHandIndex4
											{
												OFFSET -2.490097 0.000000 0.000000
												CHANNELS 3 Xrotation Yrotation Zrotation
												End Site
												{
													OFFSET -2.490097 0.000000 -0.000700
												}
											}
										}
									}
								}
								JOINT mixamorig:RightHandMiddle1
								{
									OFFSET -8.656311 0.000000 0.000000
									CHANNELS 3 Xrotation Yrotation Zrotation
									JOINT mixamorig:RightHandMiddle2
									{
										OFFSET -3.230400 0.000000 0.000000
										CHANNELS 3 Xrotation Yrotation Zrotation
										JOINT mixamorig:RightHandMiddle3
										{
											OFFSET -3.025497 0.000000 0.000000
											CHANNELS 3 Xrotation Yrotation Zrotation
											JOINT mixamorig:RightHandMiddle4
											{
												OFFSET -2.688805 0.000000 0.000000
												CHANNELS 3 Xrotation Yrotation Zrotation
												End Site
												{
													OFFSET -2.688797 0.000000 -0.000700
												}
											}
										}
									}
								}
								JOINT mixamorig:RightHandRing1
								{
									OFFSET -8.628174 0.073822 -2.089274
									CHANNELS 3 Xrotation Yrotation Zrotation
									JOINT mixamorig:RightHandRing2
									{
										OFFSET -2.674103 0.000000 0.000000
										CHANNELS 3 Xrotation Yrotation Zrotation
										JOINT mixamorig:RightHandRing3
										{
											OFFSET -2.630905 0.000000 0.000000
											CHANNELS 3 Xrotation Yrotation Zrotation
											JOINT mixamorig:RightHandRing4
											{
												OFFSET -2.160599 0.000000 0.000000
												CHANNELS 3 Xrotation Yrotation Zrotation
												End Site
												{
													OFFSET -2.160599 0.000000 -0.000900
												}
											}
										}
									}
								}
								JOINT mixamorig:RightHandPinky1
								{
									OFFSET -7.514580 -0.339432 -3.927982
									CHANNELS 3 Xrotation Yrotation Zrotation
									JOINT mixamorig:RightHandPinky2
									{
										OFFSET -2.510002 0.000000 0.000000
										CHANNELS 3 Xrotation Yrotation Zrotation
										JOINT mixamorig:RightHandPinky3
										{
											OFFSET -2.099197 0.000000 0.000000
											CHANNELS 3 Xrotation Yrotation Zrotation
											JOINT mixamorig:RightHandPinky4
											{
												OFFSET -1.845604 0.000000 0.000000
												CHANNELS 3 Xrotation Yrotation Zrotation
												End Site
												{
													OFFSET -1.845596 -0.000015 0.001600
												}
											}
										}
									}
								}
							}
						}
					}
				}
			}
		}
	}
	JOINT mixamorig:LeftUpLeg
	{
		OFFSET 9.392100 -5.572197 -0.093200
		CHANNELS 3 Xrotation Yrotation Zrotation
		JOINT mixamorig:LeftLeg
		{
			OFFSET 0.292645 -42.228855 -2.734330
			CHANNELS 3 Xrotation Yrotation Zrotation
			JOINT mixamorig:LeftFoot
			{
				OFFSET -0.292647 -39.069244 -1.515097
				CHANNELS 3 Xrotation Yrotation Zrotation
				JOINT mixamorig:LeftToeBase
				{
					OFFSET 1.771321 -7.534380 12.504712
					CHANNELS 3 Xrotation Yrotation Zrotation
					JOINT mixamorig:LeftToe_End
					{
						OFFSET 0.606595 0.250482 5.917521
						CHANNELS 3 Xrotation Yrotation Zrotation
						End Site
						{
							OFFSET 0.606595 0.250482 5.917521
						}
					}
				}
			}
		}
	}
	JOINT mixamorig:RightUpLeg
	{
		OFFSET -9.392100 -5.572197 -0.015200
		CHANNELS 3 Xrotation Yrotation Zrotation
		JOINT mixamorig:RightLeg
		{
			OFFSET -0.292665 -42.228924 -2.850109
			CHANNELS 3 Xrotation Yrotation Zrotation
			JOINT mixamorig:RightFoot
			{
				OFFSET 0.292671 -39.069195 -1.341140
				CHANNELS 3 Xrotation Yrotation Zrotation
				JOINT mixamorig:RightToeBase
				{
					OFFSET -1.771318 -7.534140 12.379671
					CHANNELS 3 Xrotation Yrotation Zrotation
					JOINT mixamorig:RightToe_End
					{
						OFFSET -0.606596 0.250612 6.000615
						CHANNELS 3 Xrotation Yrotation Zrotation
						End Site
						{
							OFFSET -0.606596 0.250612 6.000614
						}
					}
				}
			}
		}
	}
}
MOTION
Frames: 5
Frame Time: 0.033333
27.514944 39.279930 -25.617233 47.160523 -7.055069 15.822620 54.516535 3.730446 -0.591079 2.556542 0.138247 -0.806901 2.565951 0.124640 -0.815851 11.301641 -7.991378 -2.273629 -34.595581 -1.915082 -15.536846 0.000000 -0.000000 -0.000000 1.242779 -17.149850 -2.915496 -35.655353 -17.835099 -58.250517 -0.000016 -136.741890 -0.000009 35.353510 2.267874 4.812172 33.903597 -6.929793 13.849946 7.219660 11.712709 1.079892 -4.198132 -21.699434 7.404073 0.000002 -0.000000 -0.000001 0.074557 2.008543 3.434543 0.654923 2.693553 -27.328328 0.778616 2.920220 -29.853490 0.000000 -0.000002 0.000000 -0.295465 4.294349 8.750521 1.280490 3.656936 -38.585111 0.525910 2.427891 -24.440702 0.000000 -0.000003 0.000001 -0.165181 3.461778 8.582726 1.573483 3.995889 -42.973832 1.176687 3.523170 -36.927397 0.000001 0.000001 0.000002 0.956416 -1.012214 21.561287 1.264363 3.636691 -38.331585 1.315229 3.699973 -39.126650 0.000000 -0.000003 -0.000001 1.305481 19.893618 7.235601 -65.827656 5.514153 0.686710 0.000015 141.057080 -0.000006 14.116516 1.001470 1.883649 5.164913 -0.153411 -12.736722 6.342068 -14.405757 -2.105061 -5.504786 -5.510960 -14.718513 0.000002 -0.000001 -0.000002 -5.321394 15.313463 17.478121 1.351474 -3.282324 44.749016 0.158031 1.204135 -14.952701 0.000001 0.000000 0.000001 -1.843950 3.471199 16.719050 0.986355 -2.868031 37.950894 1.401392 -3.331804 45.614250 0.000004 0.000002 0.000003 -0.972089 0.214222 17.737658 1.183987 -3.104487 41.742899 0.270993 -1.566984 19.621967 0.000001 0.000004 -0.000001 -0.109207 -2.233175 14.136180 0.111538 -1.014193 12.551360 0.594731 -2.279162 29.246406 0.000002 -0.000002 -0.000002 -65.472411 14.466166 15.758862 134.559685 -5.904142 -0.723349 -11.772097 -4.733885 -3.931577 -65.525679 4.379700 -14.513860 0.000004 0.000001 -0.000002 -82.781251 34.152575 -1.487749 141.458777 3.280876 0.494181 26.863831 15.263349 23.213544 -27.769264 0.000003 -0.000017 -0.000002 -0.000000 0.000001 
27.485287 39.279808 -25.644173 47.115362 -7.052461 15.846478 54.587756 3.736280 -0.593326 2.553782 0.062225 -0.850677 2.560551 0.047128 -0.857158 11.264891 -7.994101 -2.230209 -34.686146 -1.923963 -15.469402 0.000001 -0.000000 0.000001 1.241928 -17.245975 -3.083545 -35.788784 -17.812657 -57.848622 -0.000020 -136.845750 -0.000014 35.512705 2.414144 4.616979 34.004360 -7.192472 13.788722 7.242512 11.469035 1.048148 -4.160517 -22.763738 7.043712 0.000002 0.000005 0.000003 0.074543 2.008559 3.434541 0.653038 2.689893 -27.288103 0.774974 2.913866 -29.781834 -0.000000 -0.000003 0.000000 -0.290737 4.329875 8.551625 1.267406 3.640520 -38.379673 0.516351 2.406745 -24.214125 -0.000000 0.000001 -0.000000 -0.165213 3.479607 8.508571 1.573500 3.995899 -42.973822 1.176695 3.523163 -36.927404 0.000001 0.000001 -0.000001 0.956403 -1.012213 21.561304 1.264387 3.636679 -38.331578 1.315225 3.699968 -39.126670 -0.000000 -0.000002 -0.000000 1.305485 19.893606 7.235598 -65.784045 5.548132 0.662405 0.000019 141.050715 -0.000013 14.134881 0.891240 1.719235 5.164919 -0.153418 -12.736740 6.342072 -14.405743 -2.105047 -5.504787 -5.510965 -14.718520 -0.000002 0.000000 0.000001 -5.321391 15.313443 17.478126 1.316695 -3.246901 44.138421 0.158019 1.204128 -14.952705 -0.000002 -0.000000 -0.000001 -1.843952 3.471198 16.719057 0.991070 -2.874037 38.044557 1.410085 -3.340283 45.763620 0.000000 0.000000 -0.000000 -0.972087 0.214220 17.737665 1.192542 -3.114060 41.900765 0.270993 -1.566987 19.621964 0.000001 0.000002 -0.000001 -0.110329 -2.229473 14.146152 0.111378 -1.013492 12.542414 0.599129 -2.286977 29.356676 0.000000 -0.000001 -0.000000 -65.427386 14.364069 15.759418 134.561489 -5.898427 -0.748618 -11.767444 -4.977577 -3.939602 -65.671620 4.322032 -14.306271 -0.000000 -0.000001 0.000001 -82.783354 34.296518 -1.458036 141.478312 3.333686 0.544615 26.873193 15.484590 23.007238 -27.733285 0.000010 -0.000024 -0.000000 0.000000 0.000001 
27.458944 39.282936 -25.674736 47.035865 -7.046844 15.871877 54.685971 3.716394 -0.585437 2.552040 -0.023054 -0.893147 2.555768 -0.039629 -0.896978 11.232770 -7.976547 -2.210687 -34.798110 -1.916567 -15.366174 -0.000000 0.000000 0.000000 1.240253 -17.347226 -3.258834 -35.942245 -17.766348 -57.430560 -0.000006 -136.953038 -0.000004 35.654561 2.681500 4.355481 34.092995 -7.423044 13.734944 7.262736 11.255719 1.020255 -4.129990 -23.694609 6.721607 0.000001 0.000001 0.000003 0.074535 2.008547 3.434542 0.653312 2.690384 -27.293636 0.772333 2.909291 -29.730253 0.000000 0.000004 -0.000000 -0.281476 4.337265 8.344754 1.249401 3.617717 -38.095182 0.503300 2.377559 -23.901407 -0.000000 0.000000 -0.000000 -0.162351 3.476338 8.440183 1.573497 3.995914 -42.973826 1.176671 3.523148 -36.927408 0.000000 0.000000 -0.000000 0.956388 -1.012157 21.561302 1.264343 3.636679 -38.331599 1.315261 3.699985 -39.126643 0.000000 -0.000003 0.000000 1.305494 19.893606 7.235583 -65.699911 5.617102 0.656923 0.000011 141.005431 -0.000012 14.173004 0.805915 1.526005 5.164907 -0.153398 -12.736727 6.342073 -14.405755 -2.105054 -5.504783 -5.510958 -14.718506 0.000002 -0.000003 -0.000002 -5.321394 15.313460 17.478130 1.283179 -3.212087 43.543761 0.158027 1.204137 -14.952701 0.000000 -0.000001 0.000001 -1.843946 3.471192 16.719045 0.995383 -2.879540 38.130982 1.418121 -3.348073 45.901371 0.000002 0.000004 -0.000001 -0.972093 0.214239 17.737667 1.200461 -3.122840 42.046385 0.270992 -1.567002 19.621969 0.000003 0.000002 -0.000001 -0.111409 -2.226076 14.155389 0.111239 -1.012804 12.534149 0.603200 -2.294204 29.458363 -0.000001 -0.000002 0.000001 -65.356168 14.259331 15.743325 134.575531 -5.894764 -0.770658 -11.761343 -5.164960 -3.977609 -65.659237 4.254131 -14.160376 0.000001 -0.000000 0.000000 -82.746594 34.482446 -1.445129 141.503010 3.406537 0.613650 26.872777 15.685326 22.843255 -27.697974 0.000001 -0.000009 -0.000000 -0.000002 0.000002 
27.438656 39.283531 -25.710915 46.937654 -7.027971 15.900668 54.793987 3.692362 -0.577365 2.551427 -0.123042 -0.935250 2.551548 -0.141134 -0.936128 11.192874 -7.924189 -2.167497 -34.890734 -1.903324 -15.192595 -0.000001 0.000000 0.000000 1.237571 -17.453415 -3.440826 -36.129068 -17.741894 -57.016333 -0.000004 -137.058387 -0.000012 35.772115 3.083193 4.009044 34.170344 -7.623445 13.688181 7.280530 11.070814 0.995938 -4.104028 -24.500691 6.437389 0.000002 0.000001 0.000001 0.074555 2.008555 3.434552 0.655461 2.694592 -27.339880 0.770732 2.906432 -29.698130 -0.000000 -0.000001 0.000000 -0.268334 4.318680 8.131209 1.227055 3.589056 -37.739350 0.487253 2.341041 -23.511622 0.000000 -0.000007 0.000000 -0.156898 3.453646 8.377564 1.573506 3.995896 -42.973815 1.176669 3.523138 -36.927397 0.000000 0.000002 -0.000001 0.956337 -1.012050 21.561316 1.264360 3.636687 -38.331595 1.315241 3.699978 -39.126643 0.000000 -0.000002 -0.000001 1.305487 19.893616 7.235598 -65.614274 5.663487 0.661903 0.000021 140.941623 -0.000001 14.200149 0.765794 1.312822 5.164926 -0.153444 -12.736756 6.342067 -14.405742 -2.105051 -5.504786 -5.510961 -14.718516 0.000002 0.000000 0.000003 -5.321383 15.313455 17.478114 1.251209 -3.178139 42.969984 0.158030 1.204132 -14.952691 -0.000001 0.000001 -0.000001 -1.843934 3.471176 16.719019 0.999353 -2.884587 38.210196 1.425503 -3.355211 46.027665 0.000002 0.000002 0.000002 -0.972072 0.214223 17.737655 1.207741 -3.130880 42.179874 0.271001 -1.566997 19.621967 -0.000002 0.000002 -0.000000 -0.112368 -2.222941 14.163835 0.111095 -1.012235 12.526567 0.606926 -2.300799 29.551596 -0.000002 -0.000002 0.000002 -65.278017 14.157116 15.703894 134.599355 -5.888939 -0.788144 -11.767562 -5.323435 -4.038684 -65.612436 4.211566 -14.059817 0.000000 -0.000002 0.000002 -82.687950 34.676310 -1.464079 141.524511 3.480917 0.679557 26.920301 15.905484 22.673863 -27.656669 -0.000002 0.000002 -0.000000 -0.000001 0.000003 
27.416845 39.281548 -25.757278 46.855405 -7.030294 15.899156 54.876462 3.670295 -0.579978 2.551839 -0.247103 -0.972580 2.547335 -0.266838 -0.970288 11.172482 -7.824959 -2.088129 -35.026682 -1.764438 -15.001098 -0.000001 -0.000000 0.000000 1.233921 -17.564294 -3.628800 -36.330500 -17.668116 -56.578053 -0.000018 -137.201097 -0.000010 35.861741 3.547531 3.630749 34.237174 -7.795677 13.647923 7.296050 10.912434 0.975027 -4.080532 -25.190649 6.190284 0.000003 0.000001 0.000004 0.074544 2.008560 3.434534 0.659327 2.702019 -27.421777 0.770053 2.905260 -29.684924 -0.000000 -0.000003 0.000000 -0.251960 4.276314 7.912250 1.200895 3.555122 -37.319819 0.468725 2.298010 -23.053856 -0.000000 -0.000003 -0.000000 -0.149188 3.413223 8.320656 1.573488 3.995906 -42.973822 1.176682 3.523151 -36.927418 -0.000001 0.000002 -0.000000 0.956275 -1.011884 21.561328 1.264382 3.636692 -38.331582 1.315236 3.699957 -39.126643 -0.000000 0.000000 0.000000 1.305487 19.893599 7.235583 -65.433192 5.748976 0.701126 0.000004 140.820469 -0.000005 14.260486 0.771340 1.011752 5.164923 -0.153405 -12.736727 6.342088 -14.405733 -2.105042 -5.504799 -5.510975 -14.718516 0.000001 -0.000003 -0.000002 -5.321390 15.313450 17.478116 1.220985 -3.145451 42.422189 0.158024 1.204127 -14.952717 -0.000004 0.000000 -0.000001 -1.843944 3.471189 16.719036 1.003011 -2.889204 38.282309 1.432249 -3.361662 46.142658 -0.000001 0.000005 0.000004 -0.972084 0.214217 17.737656 1.214396 -3.138192 42.301421 0.271003 -1.566987 19.621964 0.000003 0.000000 0.000001 -0.113247 -2.220085 14.171541 0.110967 -1.011695 12.519676 0.610342 -2.306784 29.636495 -0.000003 -0.000001 0.000001 -65.235109 14.037271 15.691376 134.642413 -5.882848 -0.802376 -11.762673 -5.464714 -4.081826 -65.621555 4.165248 -13.949063 -0.000004 0.000001 -0.000000 -82.690498 34.868259 -1.416950 141.540521 3.571225 0.755640 27.047484 16.117901 22.718377 -27.601814 0.000002 -0.000007 -0.000000 0.000002 0.000002 
